<svg width="108" height="20" viewBox="0 0 108 20" fill="none" xmlns="http://www.w3.org/2000/svg">
<path d="M10 0L12.2451 6.90983H19.5106L13.6327 11.1803L15.8779 18.0902L10 13.8197L4.12215 18.0902L6.36729 11.1803L0.489435 6.90983H7.75486L10 0Z" fill="#7CB508"/>
<path d="M32 0L34.2451 6.90983H41.5106L35.6327 11.1803L37.8779 18.0902L32 13.8197L26.1221 18.0902L28.3673 11.1803L22.4894 6.90983H29.7549L32 0Z" fill="#7CB508"/>
<path d="M54 0L56.2451 6.90983H63.5106L57.6327 11.1803L59.8779 18.0902L54 13.8197L48.1221 18.0902L50.3673 11.1803L44.4894 6.90983H51.7549L54 0Z" fill="#7CB508"/>
<path d="M76 0L78.2451 6.90983H85.5106L79.6327 11.1803L81.8779 18.0902L76 13.8197L70.1221 18.0902L72.3673 11.1803L66.4894 6.90983H73.7549L76 0Z" fill="#7CB508"/>
<path d="M98 0L100.245 6.90983H107.511L101.633 11.1803L103.878 18.0902L98 13.8197L92.1221 18.0902L94.3673 11.1803L88.4894 6.90983H95.7549L98 0Z" fill="#7CB508"/>
</svg>
